<svg id="Layer_1" data-name="Layer 1" xmlns="http://www.w3.org/2000/svg" viewBox="0 0 382.35607 383.1176"><path d="M369.74888,184.82458q-178.62433.12927-357.24884.06806c-8.06818.00042-12.49158,4.40021-12.493,12.43329Q-.00786,283.99112.00669,370.65619c.00092,6.49737,2.64942,10.05261,8.90656,12.10437,1.445.57672,2.955.28143,4.43048.28161q179.36279.02371,358.7334.01374c6.28113-.23114,8.72015-2.2732,10.27893-8.59986V193.2193C379.88511,187.80731,376.102,184.82,369.74888,184.82458Zm-9.71765,172.03858c.007,3.12536-.75134,3.86786-3.86011,3.86194q-82.68676-.15738-165.374-.076-82.127,0-164.254.08294c-3.42547.00739-4.22833-.87725-4.22021-4.25982q.17422-72.627-.01007-145.25421c-.0091-3.3656.87964-3.9831,4.06006-3.98053q164.814.13512,329.62817-.00293c3.219-.00275,4.04932.67346,4.04065,4Q359.85264,284.04855,360.03123,356.86316Z" transform="translate(0.00002 0)" style="fill:#fefefe"/><path d="M264.86454,74.15961c-3.108-.09217-6.22485-.11036-9.33008.01995-1.6773.07038-2.3092-.40979-2.64331-2.14831a53.15548,53.15548,0,0,0-4.3219-13.074c-1.61077-3.33923-5.15393-6.82049-4.71618-9.773.44525-3.00311,4.78894-5.36639,7.2879-8.13476,4.314-4.77918,4.19159-11.56458-.16547-15.84155-4.36218-4.28205-11.097-4.24415-15.79455.15155a67.83244,67.83244,0,0,0-5.521,5.57415c-1.62958,1.92493-2.90448,2.30768-5.19507.71387a44.21535,44.21535,0,0,0-16.96948-7.37128c-4.2771-.80432-5.68866-2.41558-5.2207-6.71209.37109-3.40668.59967-6.97968-.80744-10.339C199.67808,2.95355,195.97318,1.25616,191.92558,0h-2.98719c-.08349.60071-.561.70721-1.02905.88678-5.56128,2.13318-8.11615,6.23486-7.94159,12.15814.0661,2.24414-.16632,4.50983.05847,6.733.24237,2.39612-.43475,3.4989-2.96081,3.91571A46.89693,46.89693,0,0,0,164.41178,27.991c-3.20581,1.5462-6.574,4.95538-9.38873,4.50592-2.9046-.46381-5.18481-4.63684-7.81433-7.10559-4.714-4.42572-11.40405-4.48993-15.79639-.22284-4.48089,4.35315-4.50226,11.27911.01471,16.10913,1.95679,2.09228,3.94367,4.173,6.08124,6.07287,1.50122,1.33441,1.6153,2.37659.45044,4.04566a61.06061,61.06061,0,0,0-6.44055,13.00592c-1.23651,3.17279-.64844,7.87329-3.31763,9.36908-2.66138,1.49139-6.78729.32092-10.27008.379-6.44971.10755-11.24738,4.72419-11.38959,10.90729A11.17816,11.17816,0,0,0,117.742,96.56708a52.574,52.574,0,0,0,7.83088-.04822c2.87988-.34436,3.80584.93542,4.267,3.49872.79663,4.42779,2.59693,8.53686,4.34967,12.66851,1.34546,3.17151,5.171,6.02021,4.31073,9.0459-.83776,2.94684-4.56463,5.04492-6.96252,7.57331-4.58557,4.83508-4.6604,11.67254-.22614,16.1026,4.40387,4.39965,11.24012,4.305,16.07465-.284,2.16785-2.0578,4.28461-4.17542,6.32886-6.35608,1.03778-1.107,1.84668-1.22345,3.15607-.34265a60.14818,60.14818,0,0,0,21.17254,8.84961c1.51331.32446,2.02631.86316,1.96912,2.407-.11548,3.11524-.105,6.23993-.01593,9.357a11.18087,11.18087,0,0,0,22.36139.08062,58.87982,58.87982,0,0,0-.04493-8.228c-.26715-2.51081.63581-3.48237,2.997-3.91236a48.18353,48.18353,0,0,0,12.64112-4.31726c3.19134-1.57184,6.59588-4.90063,9.41321-4.43732,2.91278.479,5.185,4.642,7.81994,7.10462,4.68714,4.3808,11.48041,4.40558,15.806.13422,4.44586-4.39,4.42218-11.28406-.113-16.11457a72.20838,72.20838,0,0,0-5.82812-5.79443c-1.83826-1.55676-1.73993-2.76428-.41541-4.65155a43.20015,43.20015,0,0,0,5.49677-10.97681c1.23248-3.63794,1.10437-8.89911,3.55823-10.64886,2.68078-1.91162,7.64526-.49774,11.6018-.73889a11.2009,11.2009,0,0,0-.42639-22.37854Zm-72.7561,52.04876c-21.96893.974-40.74585-17.04822-41.7121-40.03552-.92474-22.0014,17.19538-40.89978,40.03754-41.75708,21.83923-.8197,40.34765,16.96692,41.512,39.893C233.05894,106.22711,215.0272,125.19226,192.10844,126.20837Z" transform="translate(0.00002 0)" style="fill:#fefefe"/><path d="M270.8063,284.52853c-1.46513,1.62458-1.4864,3.31951-1.91622,4.80476-3.73363,12.90134-7.38805,25.8257-11.096,38.73456a12.59559,12.59559,0,0,1-10.44528,9.48255c-5.06006.91628-9.29754-.96148-12.53376-4.95523a15.86845,15.86845,0,0,1-2.62357-5.72778q-5.50129-18.79821-11.0925-37.57c-.33173-1.1195-.74122-2.21584-1.11459-3.32295l-.97875.05284q-1.58991,8.65022-3.17854,17.30065c-1.47636,8.08655-2.87431,16.18827-4.43621,24.25812-1.26542,6.53782-6.882,10.46858-13.06429,9.34295-6.08446-1.10778-9.95864-6.86307-8.79246-13.45987q7.22016-40.843,14.5984-81.65767c1.2858-7.09106,6.1011-11.43428,12.52506-11.79208,6.23189-.34707,11.38649,3.69894,13.45478,10.66382q7.06269,23.78319,14.07251,47.58217c.16839.56912.4071,1.11729.94351,2.57064,2.82886-9.90391,5.4281-18.96419,8.00306-28.03143,2.07258-7.29821,4.082-14.61464,6.18168-21.905,2.01862-7.009,7.06476-11.08336,13.34086-10.88507,6.566.20745,11.31317,4.56857,12.73472,11.92847q7.7575,40.16354,15.4221,80.34511c1.40884,7.37544-2.21714,13.43327-8.64639,14.63857-6.4839,1.21557-11.99172-2.9732-13.41781-10.38125C276.08672,312.72845,273.51579,298.89424,270.8063,284.52853Z" transform="translate(0.00002 0)" style="fill:#fefefe"/><path d="M169.39024,319.63342q-15.22715-40.46622-30.48889-80.91937c-2.51062-6.65686-6.9029-10.11273-12.81275-10.15088-5.86114-.03784-10.37127,3.42908-12.88763,10.03223q-15.46308,40.57753-30.88568,81.17083a12.45616,12.45616,0,0,0-1.10877,5.04834,11.33382,11.33382,0,0,0,8.58563,11.24872,10.91082,10.91082,0,0,0,12.44635-5.991c1.81165-3.94159,3.24836-8.06476,4.69672-12.16236.66956-1.89422,1.58081-2.68024,3.73792-2.62433,6.71246.1742,13.43255.03107,20.14923.07575,4.33941.02887,9.668-1.33014,12.72924.69958,2.86628,1.90039,3.34064,7.44062,4.84919,11.38617,2.8172,7.368,8.78479,10.57428,15.0957,8.09577C169.67253,333.11737,172.06224,326.73437,169.39024,319.63342Zm-52.81037-26.83783c3.094-8.17706,6.11414-16.15893,9.38092-24.7926,3.21277,8.49,6.22217,16.44263,9.38184,24.7926Z" transform="translate(0.00002 0)" style="fill:#fdfdfd"/></svg>