<svg id="Layer_1" data-name="Layer 1" xmlns="http://www.w3.org/2000/svg" viewBox="0 0 2687.48624 2686.99992"><path d="M1413.4416,358.97679c81.85608,1.3026,177.77175,10.76482,271.99869,33.8959,54.7155,13.43173,86.26914,60.69391,74.92656,110.72751-12.14529,53.57447-59.00862,84.16544-114.98673,71.48843-201.87886-45.71836-402.29833-40.806-596.03234,32.13827C675.8536,747.8541,439.52562,1014.29126,364.39065,1407.43239c-101.57315,531.478,209.317,1040.27207,722.24427,1200.97355,562.28727,176.166,1165.8538-150.547,1326.12863-718.45992,48.86341-173.14141,53.89241-347.84947,13.6619-523.61561-14.01276-61.221,9.9477-108.96113,61.06894-124.456,53.901-16.33743,106.078,14.70785,119.36672,72.40717,59.06011,256.43928,44.59442,508.7264-57.88882,751.3569-174.26007,412.56369-483.39924,670.50982-922.53365,755.23965C983.63181,2944.90645,364.88451,2546.99091,196.28476,1913.09153,37.22743,1315.06968,360.03557,677.07186,936.44658,448.64864,1085.07024,389.75118,1238.95275,360.4714,1413.4416,358.97679Z" transform="translate(-155.8162 -156.48735)"/><path d="M1400.06283,2235.42172c-321.07382.74811-596.91933-244.19733-631.46407-560.72818-35.76084-327.67245,178.6473-625.71145,499.93-694.19573a585.5065,585.5065,0,0,1,121.9579-13.37118c58.49242-.02109,102.09073,39.8292,102.177,93.603.08436,52.68724-41.77669,92.37442-98.96084,93.82122-208.98659,5.28772-380.77684,142.94693-429.79585,344.40493-59.37539,244.02036,103.2016,495.22544,349.76764,540.4423,254.38641,46.651,495.01985-125.18559,526.71827-376.34509,2.56007-20.28374,4.11849-40.75035,4.98144-61.181,2.30359-54.539,43.25764-95.54769,95.10223-94.48853,51.84978,1.05915,93.87465,43.25121,91.95446,97.45988-9.158,258.538-129.39414,448.076-358.57008,567.313C1591.76333,2214.87038,1493.809,2235.20328,1400.06283,2235.42172Z" transform="translate(-155.8162 -156.48735)"/><path d="M2767.1311,539.56952q-104.87219-36.07965-210.448-70.09473c-14.40967-4.65753-21.84278-12.11175-26.5044-26.65045-22.86475-71.30926-46.606-142.34412-70.70142-213.25018-26.477-77.91358-105.81127-97.344-163.7207-39.7367-123.84936,123.20288-247.02734,247.08069-370.84668,370.314-22.793,22.68506-33.53857,48.59265-33.27234,80.978.82593,100.5213-.40832,201.06237.81482,301.5755.283,23.24774-6.24756,39.42206-22.89709,55.958-172.4187,171.24347-343.80921,343.52179-515.921,515.07538-26.854,26.76673-41.32959,56.9325-32.41944,94.66883,8.21753,34.80322,29.92945,58.48242,64.88477,68.70092,38.79626,11.3418,70.44556-1.1499,98.10474-28.84448q259.65307-259.98577,519.25854-520.01806c15.05225-15.144,29.843-21.34839,51.00269-20.74,50.70385,1.458,101.47827.47119,152.22436.46923,49.77-.00183,99.5669-.99633,149.30127.339,34.602.92884,61.85425-11.08276,86.03613-35.43615Q2623.5669,890.04824,2806.06323,708.168C2868.35449,645.67517,2850.57056,568.27557,2767.1311,539.56952ZM2338.957,910.837c-7.70825,7.787-15.604,9.8731-25.83105,9.835-71.23194-.26636-142.47339-.72864-213.69165.28393-17.37281.247-20.59839-5.75336-20.42334-21.53717.77832-70.25671.31421-140.527.36914-210.7923.00659-8.58484-1.02491-16.96136,6.3457-24.32,79.17139-79.04206,158.064-158.36335,240.31519-240.90192,14.6831,43.89569,29.45581,82.77344,40.57275,122.6701,13.04346,46.8108,41.48047,74.7002,88.28906,87.46033,39.18018,10.68061,77.29737,25.26288,120.751,39.73847C2494.428,754.66449,2416.47119,832.53156,2338.957,910.837Z" transform="translate(-155.8162 -156.48735)"/></svg>