<svg id="Layer_1" data-name="Layer 1" xmlns="http://www.w3.org/2000/svg" viewBox="0 0 382.05434 383.43652"><path d="M381.70531,194.565c-1.61829-6.04193-5.43713-8.58563-12.97357-8.58582q-177.50344-.005-355.0069.00031c-9.4184.0003-13.64539,4.251-13.64587,13.69293Q.07438,284.46379.00011,369.25492c-.017,6.9726,2.35785,11.76514,8.98505,14.18158H373.41692c6.61987-1.63892,8.5238-3.92944,8.577-10.312q-.00009-87.05439-.01544-174.12354C381.978,197.5239,382.27214,196.01286,381.70531,194.565ZM355.67369,361.01389q-164.47164-.12688-328.94342-.0003c-3.26159.0025-4.3103-.6236-4.30035-4.16651q.20261-72.07736.006-144.15527c-.00909-3.48035.93707-4.25348,4.29242-4.24695q82.32888.16012,164.65826.07575,82.14249,0,164.28492-.07544c3.3507-.00647,4.30413.75927,4.295,4.24432q-.189,72.07764.00543,144.1557C359.9818,360.38389,358.93932,361.0164,355.67369,361.01389Z" transform="translate(-0.00002 0.00002)" style="fill:#fefefe"/><path d="M248.35625,53.8751c5.25952.65033,9.66321-.74323,12.36963-5.62836,2.70386-4.88049,1.42828-9.27319-1.72351-13.53021C247.16808,18.73222,231.78673,7.98728,212.56786,2.88206,208.46672,1.79264,204.2993.95414,200.16246,0H181.49278c-.33392.95935-1.19171.68335-1.87646.78619C130.27812,8.193,98.08653,54.97214,110.00865,103.644c8.15058,33.27454,29.95649,54.668,63.26307,62.08557,32.404,7.21661,60.07037-2.91394,82.13812-27.93219a11.7534,11.7534,0,0,0,3.02868-6.68091c.68189-6.50506-4.64477-12.62768-12.96411-12.35113a32.58976,32.58976,0,1,1,2.88184-64.89026Zm-26.49689,82.941c-21.69537,13.78943-56.74957,12.11963-78.14056-14.10291a61.24761,61.24761,0,0,1,5.93286-83.81915c23.76416-22.204,57.65906-19.75238,76.33569-5.00317-23.08313,9.804-36.52472,26.91778-36.66815,52.31726C189.18743,109.5438,201.09734,126.17539,221.85936,136.81614Z" transform="translate(-0.00002 0.00002)" style="fill:#fefefe"/><path d="M257.33423,285.13194c-4.09174,14.31889-8.1327,28.65267-12.2991,42.94969-1.7841,6.12215-6.26368,9.63435-12.09982,9.86784-6.48716.25953-11.38156-3.36166-13.4079-10.128-3.99472-13.33908-7.90662-26.7031-11.8564-40.05574-.27783-.9393-.58573-1.86967-1.22668-3.90759-1.71131,9.35509-3.24267,17.64014-4.73829,25.93165-1.06088,5.88133-2.03035,11.77944-3.1191,17.65547-1.25542,6.77545-6.726,10.76529-13.17236,9.70052-6.24688-1.03184-10.21383-6.86394-9.00491-13.65432,4.01575-22.55589,8.13055-45.09406,12.20895-67.63875q1.26354-6.98466,2.53954-13.96708c1.29418-7.03437,5.96533-11.52437,12.369-11.90819,6.344-.38025,11.65473,3.58381,13.67874,10.42515,4.90206,16.56963,9.72914,33.16159,14.60443,49.806,1.65146-.87076,1.418-2.60759,1.79634-3.91579,4.35122-15.04724,8.58677-30.12805,12.86092-45.19771,2.06692-7.28755,6.99576-11.3444,13.494-11.13112,6.65583.21849,11.288,4.62545,12.77167,12.31862q7.7439,40.15382,15.41355,80.322c1.41725,7.43584-2.2145,13.36135-8.72153,14.522-6.67616,1.1908-11.99674-2.87156-13.42825-10.28182-.56663-2.93316-1.05776-5.88093-1.61717-8.81553q-3.13454-16.44334-6.29182-32.8823Z" transform="translate(-0.00002 0.00002)" style="fill:#fefefe"/><path d="M134.86809,230.58091c-9.38654-1.46936-18.8703-.44629-28.308-.6073-8.16162-.13928-12.65186,4.44617-12.67359,12.66711-.03625,13.72156-.00989,27.4433-.01025,41.165s-.00641,27.44336.006,41.165a14.59417,14.59417,0,0,0,.87067,6.2356,11.26369,11.26369,0,0,0,12.51355,6.58111c5.18188-.96008,8.93426-5.44623,9.04309-11.27533q.213-11.41-.02216-22.82593c-.05072-2.3673.65149-2.93518,2.91449-2.87219a99.3775,99.3775,0,0,0,13.789-.33972,35.2735,35.2735,0,0,0,1.87714-69.89337Zm-4.98383,47.55646c-4.30951.36694-9.95739,1.94433-12.62976-.46582-2.73748-2.46888-.41491-8.23969-.86493-11.85382,0-4.06073.07715-7.43311-.03125-10.79944-.05773-1.79462.23713-2.74219,2.37983-2.6297,3.47546.18243,6.97229-.065,10.45068.08667A13.15069,13.15069,0,0,1,142.05272,265.008,12.85856,12.85856,0,0,1,129.88426,278.13737Z" transform="translate(-0.00002 0.00002)" style="fill:#fefefe"/></svg>