<svg id="Layer_1" data-name="Layer 1" xmlns="http://www.w3.org/2000/svg" viewBox="0 0 2117.14746 936.36914"><path d="M1420.03071,195.57027a220.68182,220.68182,0,0,1,36.81821,23.39416c18.34286,14.47992,33.65841,31.50044,44.25817,52.48517a234.89136,234.89136,0,0,1,16.1209,41.90159c.072.25331.14768.50552.399,1.3643.90465-3.96934,1.63528-7.37432,2.45862-10.7567,7.68-31.54929,22.29344-59.7591,41.3415-85.83822,22.65214-31.01357,50.16259-57.00412,81.457-79.133a485.84738,485.84738,0,0,1,44.17111-27.89087c.07929-.23434.40719-.27866.42682-.55857-.30859.07657-.63872-.02654-.93978.11274a245.05268,245.05268,0,0,0-26.46138,11.14208c-30.02235,14.38794-56.261,34.13351-80.37038,56.87851a288.33991,288.33991,0,0,0-32.1659,35.1512c-10.63046,14.00118-18.19537,29.2942-20.24072,47.47816a97.63281,97.63281,0,0,1-7.41223-18.20123c-8.87876-30.11618-5.964-59.32231,6.78388-87.789,8.84135-19.74324,23.37447-34.28757,41.30867-45.8316a180.92237,180.92237,0,0,1,71.756-26.99185c22.23909-3.36215,44.53835-6.1876,66.93815-8.14684q25.17369-2.20188,50.4664-2.33879c.65379-.00308,1.30757-.00039,2.28829-.00039-1.87839,4.97121-3.63935,9.7543-5.488,14.50328a669.24392,669.24392,0,0,1-30.22355,66.22893c-13.61912,26.16062-32.441,48.1303-54.81,67.1861-12.278,10.45943-24.71715,20.68982-38.65987,28.92947a194.83038,194.83038,0,0,1-70.89557,25.14891c-4.41474.66188-8.85689,1.15391-13.29718,1.62229a2.3604,2.3604,0,0,0-2.15685,1.43486,159.23184,159.23184,0,0,0-14.76247,42.79351c-2.34388,12.42462-2.84178,25.00793-3.30937,37.59793-.30751,8.2794-.32343,16.55689.04253,24.8317.05579,1.26148-.26071,1.61474-1.50858,1.64428-4.97815.11781-9.95718.28257-14.92832.56378-1.55752.0881-1.61091-.522-1.44039-1.7522.99543-7.18131,2.02095-14.36022,2.87133-21.55942,1.15917-9.81342,2.85269-19.59677,2.34237-29.53764a107.49385,107.49385,0,0,0-12.78342-45.91625,3.0039,3.0039,0,0,0-2.864-1.76139c-31.684-2.23637-58.68847-14.843-81.45057-36.84167a146.59649,146.59649,0,0,1-28.97875-40.02078,394.48419,394.48419,0,0,0-20.01-34.56607,4.42628,4.42628,0,0,1-1.10758-2.21834,258.12083,258.12083,0,0,1,26.847-2.50545,167.36,167.36,0,0,1,71.527,11.96464c21.25685,8.43082,36.21127,23.576,46.11214,43.911,3.78377,7.77133,4.3614,16.2037,3.98365,24.69542a121.34924,121.34924,0,0,1-3.82028,25.13917c-.17833.68717-.37525,1.36953-.66968,2.44007a115.957,115.957,0,0,0-5.1893-13.165,92.26687,92.26687,0,0,0-21.38964-28.16091,210.46977,210.46977,0,0,0-62.02424-39.26289,6.84476,6.84476,0,0,0-.83811-.23218,12.94787,12.94787,0,0,1-3.09508-1.06916c-.2541-.10372-.52315-.173-.77024-.29884.21727.21516.533.2037.78593.34058C1418.34154,194.571,1419.423,194.65652,1420.03071,195.57027Z" transform="translate(-95.90332 -72)" style="fill:#009245"/><path d="M563.62653,814.2703H342.34893a76.86485,76.86485,0,1,0,68.47959,111.80342H495.147A76.87026,76.87026,0,1,0,563.62653,814.2703Z" transform="translate(-95.90332 -72)" style="stroke:#000;stroke-linecap:round;stroke-linejoin:round;stroke-width:5.282462209489012px;opacity:0.4099999964237213;isolation:isolate"/><path d="M452.98773,795.46171V725.934a14.43879,14.43879,0,0,0-14.44127-14.44127h-109.183a14.43879,14.43879,0,0,1-14.44127-14.44128h0a14.43879,14.43879,0,0,1,14.44127-14.44128h231.468a14.43878,14.43878,0,0,0,14.44126-14.44127h0a14.43878,14.43878,0,0,0-14.44126-14.44128H467.37078a14.43877,14.43877,0,0,1-14.44127-14.44128V577.96912" transform="translate(-95.90332 -72)" style="fill:none;stroke:#000;stroke-linecap:round;stroke-linejoin:round;stroke-width:5.282462209489012px;opacity:0.4099999964237213;isolation:isolate"/><path d="M452.98773,787.717V718.18925A14.43879,14.43879,0,0,0,438.54646,703.748h-109.183a14.43879,14.43879,0,0,1-14.44127-14.44128h0a14.43878,14.43878,0,0,1,14.44127-14.44127h231.468a14.43878,14.43878,0,0,0,14.44126-14.44128h0a14.43878,14.43878,0,0,0-14.44126-14.44128H467.37078a14.43877,14.43877,0,0,1-14.44127-14.44127V572.72834" transform="translate(-95.90332 -72)" style="fill:none;stroke:#663c3b;stroke-linejoin:round;stroke-width:5.282462209489012px"/><rect x="340.19743" y="721.42363" width="33.77395" height="7.27887" style="fill:#663c3b"/><rect x="344.97238" y="717.8133" width="24.16584" height="5.70663" style="fill:#663c3b"/><rect x="348.17508" y="714.14476" width="17.76044" height="5.47371" style="fill:#663c3b"/><path d="M563.62653,800.87718H342.34893A76.86485,76.86485,0,1,0,410.82852,912.6806H495.147a76.87026,76.87026,0,1,0,68.47958-111.80342Z" transform="translate(-95.90332 -72)" style="fill:#fec556"/><path d="M440.99215,831.04082H424.68748a2.33608,2.33608,0,0,1-2.32924-2.32923h0a2.33608,2.33608,0,0,1,2.32924-2.32924h16.30467a2.33608,2.33608,0,0,1,2.32924,2.32924h0A2.29932,2.29932,0,0,1,440.99215,831.04082Z" transform="translate(-95.90332 -72)" style="fill:#f29940"/><path d="M486.81991,831.21551H453.6865a2.33608,2.33608,0,0,1-2.32923-2.32924h0a2.33608,2.33608,0,0,1,2.32923-2.32924h33.13341a2.33608,2.33608,0,0,1,2.32924,2.32924h0A2.29933,2.29933,0,0,1,486.81991,831.21551Z" transform="translate(-95.90332 -72)" style="fill:#f29940"/><path d="M486.81991,840.82362H424.62925A2.33608,2.33608,0,0,1,422.3,838.49438h0a2.33608,2.33608,0,0,1,2.32924-2.32924h62.19064a2.33608,2.33608,0,0,1,2.32924,2.32924h0A2.33606,2.33606,0,0,1,486.81991,840.82362Z" transform="translate(-95.90332 -72)" style="fill:#f29940"/><path d="M423.93049,888.7477h0a5.23669,5.23669,0,0,1,0-7.39534l17.2946-17.2946a5.2367,5.2367,0,0,1,7.39533,0h0a5.23669,5.23669,0,0,1,0,7.39534l-17.2946,17.2946A5.2367,5.2367,0,0,1,423.93049,888.7477Z" transform="translate(-95.90332 -72)" style="fill:#f29940"/><path d="M462.94522,888.7477h0a5.23671,5.23671,0,0,1,0-7.39534l17.2946-17.2946a5.23671,5.23671,0,0,1,7.39534,0h0a5.23671,5.23671,0,0,1,0,7.39534l-17.2946,17.2946A5.23671,5.23671,0,0,1,462.94522,888.7477Z" transform="translate(-95.90332 -72)" style="fill:#f29940"/><path d="M342.34893,807.57374h221.2776c41.51865,0,75.35086,32.37641,76.80663,72.8469.05822-.93168.05822-1.80514.05822-2.73686a76.866,76.866,0,0,0-76.86485-76.86485H342.34893a76.866,76.866,0,0,0-76.86485,76.86485c0,.93168,0,1.80514.05823,2.73686C266.93985,839.95015,300.772,807.57374,342.34893,807.57374Z" transform="translate(-95.90332 -72)" style="fill:#f29940"/><path d="M563.62653,944.70762c-29.87247,0-54.03832-12.40318-66.73267-37.2678H409.0816c-12.69435,24.86462-36.8602,37.2678-66.73267,37.2678a76.89627,76.89627,0,0,1-76.69016-71.91522c-.11646,1.63046-.17469,3.26092-.17469,4.94963A76.87369,76.87369,0,0,0,410.82852,912.6806H495.147A76.87369,76.87369,0,0,0,640.49138,877.742c0-1.68871-.05822-3.31917-.17469-4.94963A76.89629,76.89629,0,0,1,563.62653,944.70762Z" transform="translate(-95.90332 -72)" style="fill:#f29940"/><circle cx="246.73676" cy="809.93467" r="49.49631" style="fill:#f29940"/><circle cx="246.73676" cy="805.74203" r="48.914" style="fill:#835559"/><circle cx="246.73676" cy="805.74203" r="41.34397" style="fill:#95676b"/><path d="M371.98848,868.42508H351.957V848.39364a2.70942,2.70942,0,0,0-2.67862-2.67863H336.00175a2.70941,2.70941,0,0,0-2.67862,2.67863v20.03144H313.29168a2.70941,2.70941,0,0,0-2.67862,2.67861v13.27665a2.70941,2.70941,0,0,0,2.67862,2.67861h20.03145v20.03146a2.70941,2.70941,0,0,0,2.67862,2.67861h13.27666a2.70941,2.70941,0,0,0,2.67862-2.67861V887.059h20.03145a2.70941,2.70941,0,0,0,2.67862-2.67861V871.10369A2.67147,2.67147,0,0,0,371.98848,868.42508Z" transform="translate(-95.90332 -72)" style="fill:#663c3b"/><circle cx="246.73676" cy="805.74203" r="48.914" style="fill:none;stroke:#663c3b;stroke-linecap:round;stroke-linejoin:round;stroke-width:3.169477325693407px"/><circle cx="468.01436" cy="809.93467" r="49.49631" style="fill:#f29940"/><circle cx="468.01436" cy="805.74203" r="48.914" style="fill:#835559"/><circle cx="468.01436" cy="805.74203" r="41.34397" style="fill:#95676b"/><circle cx="468.01436" cy="805.74203" r="48.914" style="fill:none;stroke:#663c3b;stroke-linecap:round;stroke-linejoin:round;stroke-width:3.169477325693407px"/><path d="M338.85507,856.42952l3.2027-5.59017a.60206.60206,0,0,1,1.04816,0l3.2027,5.59017a.62256.62256,0,0,1-.52407.9317h-6.46364A.61972.61972,0,0,1,338.85507,856.42952Z" transform="translate(-95.90332 -72)" style="fill:#fec556"/><path d="M338.85507,899.05458l3.2027,5.59016a.60207.60207,0,0,0,1.04816,0l3.2027-5.59016a.62254.62254,0,0,0-.52407-.93168h-6.46364A.61969.61969,0,0,0,338.85507,899.05458Z" transform="translate(-95.90332 -72)" style="fill:#fec556"/><path d="M371.98848,868.42508H351.957V848.39364a2.70942,2.70942,0,0,0-2.67862-2.67863H336.00175a2.70941,2.70941,0,0,0-2.67862,2.67863v20.03144H313.29168a2.70941,2.70941,0,0,0-2.67862,2.67861v13.27665a2.70941,2.70941,0,0,0,2.67862,2.67861h20.03145v20.03146a2.70941,2.70941,0,0,0,2.67862,2.67861h13.27666a2.70941,2.70941,0,0,0,2.67862-2.67861V887.059h20.03145a2.70941,2.70941,0,0,0,2.67862-2.67861V871.10369A2.67147,2.67147,0,0,0,371.98848,868.42508Z" transform="translate(-95.90332 -72)" style="fill:none;stroke:#663c3b;stroke-linecap:round;stroke-linejoin:round;stroke-width:1.5847386628467035px"/><path d="M362.90445,873.957l5.59018,3.2027a.60207.60207,0,0,1,0,1.04815l-5.59018,3.2027a.62255.62255,0,0,1-.9317-.52409v-6.46362A.61973.61973,0,0,1,362.90445,873.957Z" transform="translate(-95.90332 -72)" style="fill:#fec556"/><path d="M321.32756,873.957l-5.59017,3.2027a.60206.60206,0,0,0,0,1.04815l5.59017,3.2027a.62254.62254,0,0,0,.93169-.52409v-6.46362A.61972.61972,0,0,0,321.32756,873.957Z" transform="translate(-95.90332 -72)" style="fill:#fec556"/><path d="M511.044,797.38333h52.87369a80.60451,80.60451,0,0,1,32.027,6.63832" transform="translate(-95.90332 -72)" style="fill:none;stroke:#663c3b;stroke-linecap:round;stroke-linejoin:round;stroke-width:4.225969767591209px"/><path d="M310.61306,804.02167a79.61086,79.61086,0,0,1,32.027-6.63833h51.942" transform="translate(-95.90332 -72)" style="fill:none;stroke:#663c3b;stroke-linecap:round;stroke-linejoin:round;stroke-width:4.225969767591209px"/><path d="M563.62653,800.87718H342.34893A76.86485,76.86485,0,1,0,410.82852,912.6806H495.147a76.87026,76.87026,0,1,0,68.47958-111.80342Z" transform="translate(-95.90332 -72)" style="fill:none;stroke:#663c3b;stroke-linecap:round;stroke-linejoin:round;stroke-width:3.169477325693407px"/><path d="M571.77886,870.57963,548.7194,893.63907a12.793,12.793,0,0,1-18.10983,0h0a12.793,12.793,0,0,1,0-18.10981L553.669,852.4698a12.793,12.793,0,0,1,18.10983,0h0A12.793,12.793,0,0,1,571.77886,870.57963Z" transform="translate(-95.90332 -72)" style="opacity:0.17000000178813934;isolation:isolate"/><path d="M570.61424,868.25039l-23.05946,23.05945a12.793,12.793,0,0,1-18.10983,0h0a12.793,12.793,0,0,1,0-18.10981l23.05946-23.05946a12.793,12.793,0,0,1,18.10983,0h0A12.793,12.793,0,0,1,570.61424,868.25039Z" transform="translate(-95.90332 -72)" style="fill:#fec556"/><path d="M570.61424,868.25039l-23.05946,23.05945a12.793,12.793,0,0,1-18.10983,0h0a12.793,12.793,0,0,1,0-18.10981l23.05946-23.05946a12.793,12.793,0,0,1,18.10983,0h0A12.793,12.793,0,0,1,570.61424,868.25039Z" transform="translate(-95.90332 -72)" style="fill:none;stroke:#663c3b;stroke-linecap:round;stroke-linejoin:round;stroke-width:1.5847386628467035px"/><circle cx="442.62566" cy="810.22582" r="8.15233" style="fill:#32b94d"/><path d="M533.2882,881.76a5.24242,5.24242,0,0,1,5.70662-4.77494" transform="translate(-95.90332 -72)" style="fill:none;stroke:#663c3b;stroke-linecap:round;stroke-linejoin:round;stroke-width:1.0564924418978023px"/><circle cx="442.62566" cy="810.22582" r="8.15233" style="fill:none;stroke:#663c3b;stroke-linecap:round;stroke-linejoin:round;stroke-width:1.5847386628467035px"/><circle cx="465.68512" cy="787.16636" r="8.15233" style="fill:#8bd8f5"/><path d="M556.34766,859.16636a5.219,5.219,0,0,1,5.24078-5.24078" transform="translate(-95.90332 -72)" style="fill:none;stroke:#663c3b;stroke-linecap:round;stroke-linejoin:round;stroke-width:1.0564924418978023px"/><circle cx="465.68512" cy="787.16636" r="8.15233" style="fill:none;stroke:#663c3b;stroke-linecap:round;stroke-linejoin:round;stroke-width:1.5847386628467035px"/><path d="M598.91447,885.83615,575.855,908.89559a12.793,12.793,0,0,1-18.10982,0h0a12.79294,12.79294,0,0,1,0-18.10981l23.05945-23.05946a12.793,12.793,0,0,1,18.10982,0h0A12.793,12.793,0,0,1,598.91447,885.83615Z" transform="translate(-95.90332 -72)" style="opacity:0.17000000178813934;isolation:isolate"/><path d="M598.33216,882.9246,575.27271,905.984a12.793,12.793,0,0,1-18.10982,0h0a12.79294,12.79294,0,0,1,0-18.10981l23.05946-23.05946a12.793,12.793,0,0,1,18.10981,0h0A12.793,12.793,0,0,1,598.33216,882.9246Z" transform="translate(-95.90332 -72)" style="fill:#fec556"/><path d="M598.33216,882.9246,575.27271,905.984a12.793,12.793,0,0,1-18.10982,0h0a12.79294,12.79294,0,0,1,0-18.10981l23.05946-23.05946a12.793,12.793,0,0,1,18.10981,0h0A12.793,12.793,0,0,1,598.33216,882.9246Z" transform="translate(-95.90332 -72)" style="fill:none;stroke:#663c3b;stroke-linecap:round;stroke-linejoin:round;stroke-width:1.5847386628467035px"/><circle cx="470.3436" cy="824.95824" r="8.15233" style="fill:#fef585"/><path d="M561.00613,896.95824a5.219,5.219,0,0,1,5.24079-5.24078" transform="translate(-95.90332 -72)" style="fill:none;stroke:#663c3b;stroke-linecap:round;stroke-linejoin:round;stroke-width:1.0564924418978023px"/><circle cx="470.3436" cy="824.95824" r="8.15233" style="fill:none;stroke:#663c3b;stroke-linecap:round;stroke-linejoin:round;stroke-width:1.5847386628467035px"/><circle cx="493.40304" cy="801.8988" r="8.15233" style="fill:#e7503b"/><path d="M584.06557,873.8988a5.219,5.219,0,0,1,5.24079-5.24078" transform="translate(-95.90332 -72)" style="fill:none;stroke:#663c3b;stroke-linecap:round;stroke-linejoin:round;stroke-width:1.0564924418978023px"/><circle cx="493.40304" cy="801.8988" r="8.15233" style="fill:none;stroke:#663c3b;stroke-linecap:round;stroke-linejoin:round;stroke-width:1.5847386628467035px"/><path d="M423.93049,886.41846h0a5.23669,5.23669,0,0,1,0-7.39534l17.2946-17.2946a5.2367,5.2367,0,0,1,7.39533,0h0a5.23669,5.23669,0,0,1,0,7.39534l-17.2946,17.2946A5.2367,5.2367,0,0,1,423.93049,886.41846Z" transform="translate(-95.90332 -72)" style="fill:#663c3b"/><path d="M462.94522,886.41846h0a5.23671,5.23671,0,0,1,0-7.39534l17.2946-17.2946a5.23671,5.23671,0,0,1,7.39534,0h0a5.23671,5.23671,0,0,1,0,7.39534l-17.2946,17.2946A5.23671,5.23671,0,0,1,462.94522,886.41846Z" transform="translate(-95.90332 -72)" style="fill:#663c3b"/><circle cx="246.73676" cy="805.74203" r="9.31695" style="fill:#fec556"/><path d="M342.64008,885.13737a9.43,9.43,0,0,1-9.25872-8.38527,5.009,5.009,0,0,0-.05823.93168,9.31695,9.31695,0,1,0,18.6339,0,4.70676,4.70676,0,0,0-.05823-.93168A9.47409,9.47409,0,0,1,342.64008,885.13737Z" transform="translate(-95.90332 -72)" style="fill:#f29940"/><path d="M335.65237,877.742a7.085,7.085,0,0,1,6.98771-6.98771" transform="translate(-95.90332 -72)" style="fill:none;stroke:#663c3b;stroke-linecap:round;stroke-linejoin:round;stroke-width:1.0564924418978023px"/><text transform="translate(598.09668 675.07617)" style="font-size:122px;fill:#383838;font-family:Imprima-Regular, Imprima">The secret of your <tspan x="1043.63379" y="0" style="fill:#009245">future</tspan><tspan x="1361.80273" y="0" xml:space="preserve"> is</tspan><tspan style="fill:#43beed"><tspan x="0" y="146.40039">hidden</tspan><tspan x="367.33691" y="146.40039" xml:space="preserve" style="fill:#383838"> in your daily </tspan><tspan x="1119.56543" y="146.40039" style="fill:#f4371d">routine</tspan></tspan></text><path d="M205.40332,580.67578a107.98983,107.98983,0,0,1-42.6001-8.40039,110.303,110.303,0,0,1-58.3501-57.59961,107.43641,107.43641,0,0,1,0-84.00049,110.30169,110.30169,0,0,1,58.3501-57.60009,107.98954,107.98954,0,0,1,42.6001-8.39991,123.00727,123.00727,0,0,1,27.2998,3,95.34089,95.34089,0,0,1,24.3003,9,16.21413,16.21413,0,0,1,6.75,6.4502,16.81055,16.81055,0,0,1,2.25,8.25,19.49743,19.49743,0,0,1-4.8003,12.8999,15.35927,15.35927,0,0,1-12.2998,5.69971,21.39244,21.39244,0,0,1-4.9502-.59961,22.39965,22.39965,0,0,1-4.9497-1.80029,82.291,82.291,0,0,0-15.8999-5.1001,84.35816,84.35816,0,0,0-17.7002-1.79981,67.15985,67.15985,0,0,0-35.5498,9.75,72.50506,72.50506,0,0,0-25.5,26.1001,73.58157,73.58157,0,0,0,0,72.15039,72.09959,72.09959,0,0,0,25.5,26.25,67.12448,67.12448,0,0,0,35.5498,9.75,121.16859,121.16859,0,0,0,19.7998-1.80078,76.72724,76.72724,0,0,0,17.7002-4.7998l-2.7002,9V495.77539l5.1001,4.5h-33.2998a17.97152,17.97152,0,0,1-13.0503-5.09961,18.47393,18.47393,0,0,1,0-25.80029,17.98775,17.98775,0,0,1,13.0503-5.1001h49.1997a17.24149,17.24149,0,0,1,12.9004,5.25,18.00129,18.00129,0,0,1,5.0996,13.04981v63.60058a16.34374,16.34374,0,0,1-2.8496,9.89942,25.61888,25.61888,0,0,1-6.4502,6.2998,130.27637,130.27637,0,0,1-30.1499,13.34961A117.89448,117.89448,0,0,1,205.40332,580.67578Z" transform="translate(-95.90332 -72)" style="fill:#fdc830"/><path d="M453.19727,414.17529a17.494,17.494,0,0,1,12.89843,5.1001q5.09766,5.10424,5.10157,13.19971V559.375a17.99164,17.99164,0,0,1-5.10157,13.05078,18.47212,18.47212,0,0,1-25.79882,0,17.96628,17.96628,0,0,1-5.09961-13.05078V544.67578l6.59961,2.69922q0,3.90234-4.20118,9.4502a57.17148,57.17148,0,0,1-11.39843,10.95019,69.93,69.93,0,0,1-16.95118,9.15039,58.47734,58.47734,0,0,1-21.15039,3.75,68.57127,68.57127,0,0,1-37.49951-10.65039,74.83793,74.83793,0,0,1-26.5498-29.40039q-9.75221-18.74413-9.75-43.0498,0-24.59547,9.75-43.3501a75.74681,75.74681,0,0,1,26.25-29.3999,66.0995,66.0995,0,0,1,36.60009-10.64991,69.39994,69.39994,0,0,1,23.69922,3.89991,70.91819,70.91819,0,0,1,18.75,9.8999,57.003,57.003,0,0,1,12.30078,12.15039q4.34474,6.15234,4.34961,10.34961l-10.79882,3.90039V432.4751a17.97745,17.97745,0,0,1,5.09961-13.04981A17.22713,17.22713,0,0,1,453.19727,414.17529ZM392.5957,547.67578a40.66771,40.66771,0,0,0,23.10157-6.60058,44.55836,44.55836,0,0,0,15.44921-18,57.48361,57.48361,0,0,0,5.55079-25.5,58.20466,58.20466,0,0,0-5.55079-25.79981,44.60961,44.60961,0,0,0-15.44921-18,40.70127,40.70127,0,0,0-23.10157-6.6001,40.16365,40.16365,0,0,0-22.79931,6.6001,44.5748,44.5748,0,0,0-15.4502,18,58.15094,58.15094,0,0,0-5.5498,25.79981,57.43,57.43,0,0,0,5.5498,25.5,44.52364,44.52364,0,0,0,15.4502,18A40.13023,40.13023,0,0,0,392.5957,547.67578Z" transform="translate(-95.90332 -72)" style="fill:#fdc830"/><path d="M591.7959,414.17529q23.99853,0,35.40039,11.54981,11.39795,11.55249,15,29.8501l-5.10059-2.69971,2.40039-4.80029a68.75659,68.75659,0,0,1,11.09961-14.8501,67.72436,67.72436,0,0,1,18.15039-13.5,50.8259,50.8259,0,0,1,23.84961-5.54981q21.60059,0,32.85059,9.29981,11.25,9.30249,15.45019,24.75a130.97254,130.97254,0,0,1,4.19922,34.3501V559.375a17.99006,17.99006,0,0,1-5.09961,13.05078,18.47333,18.47333,0,0,1-25.7998,0A17.971,17.971,0,0,1,709.0957,559.375V482.5752a61.73675,61.73675,0,0,0-2.39941-17.8501,24.4989,24.4989,0,0,0-8.7002-12.75q-6.30029-4.79517-18-4.79981-11.40526,0-19.5,4.79981a31.0408,31.0408,0,0,0-12.15039,12.75,38.77,38.77,0,0,0-4.0498,17.8501V559.375a17.99006,17.99006,0,0,1-5.09961,13.05078,18.47334,18.47334,0,0,1-25.79981,0A17.971,17.971,0,0,1,608.2959,559.375V482.5752a61.77014,61.77014,0,0,0-2.39942-17.8501,24.49888,24.49888,0,0,0-8.70019-12.75q-6.3003-4.79517-18-4.79981-11.40528,0-19.5,4.79981a31.04073,31.04073,0,0,0-12.15039,12.75,38.75769,38.75769,0,0,0-4.04981,17.8501V559.375a17.99006,17.99006,0,0,1-5.09961,13.05078,18.47453,18.47453,0,0,1-25.80078,0,17.97423,17.97423,0,0,1-5.09961-13.05078V435.4751a17.98541,17.98541,0,0,1,5.09961-13.04981,18.47453,18.47453,0,0,1,25.80078,0,18.00127,18.00127,0,0,1,5.09961,13.04981v12.90039l-4.5-.90039a67.12692,67.12692,0,0,1,7.5-10.94971,64.86,64.86,0,0,1,11.7002-10.95019,62.51127,62.51127,0,0,1,15.2998-8.25A51.702,51.702,0,0,1,591.7959,414.17529Z" transform="translate(-95.90332 -72)" style="fill:#fdc830"/><path d="M861.79492,580.67578q-25.50146,0-44.25-10.65039a73.49972,73.49972,0,0,1-28.7998-28.95019q-10.0547-18.29444-10.04981-41.39942,0-27.00073,10.9502-46.05029,10.94678-19.04809,28.64941-29.25a73.97943,73.97943,0,0,1,37.5-10.2002,68.27687,68.27687,0,0,1,28.9502,6.29981,79.22109,79.22109,0,0,1,24.15039,17.25,83.95952,83.95952,0,0,1,16.64941,25.3501,77.13276,77.13276,0,0,1,6.15039,30.60058,15.40692,15.40692,0,0,1-5.70019,11.69922,19.08361,19.08361,0,0,1-12.59961,4.5H798.79492l-9-29.99951H899.89551l-6.60059,5.99951v-8.09961a27.40021,27.40021,0,0,0-6.14941-15.6001A40.2285,40.2285,0,0,0,873.3457,451.2251a39.33223,39.33223,0,0,0-17.55078-4.04981,56.90266,56.90266,0,0,0-16.7998,2.39991,32.20742,32.20742,0,0,0-13.5,8.10009q-5.70264,5.70264-9,15.29981-3.3047,9.605-3.29981,24.30029,0,16.19971,6.75,27.44922a46.134,46.134,0,0,0,40.04981,22.95117q11.09619,0,17.70019-1.80078a39.77482,39.77482,0,0,0,10.65039-4.34961q4.04883-2.5459,7.34961-4.34961a22.87135,22.87135,0,0,1,10.2002-2.70117,15.109,15.109,0,0,1,15.2998,15q0,8.10059-8.40039,14.70117-7.80468,6.60059-21.89941,11.54883A87.22938,87.22938,0,0,1,861.79492,580.67578Z" transform="translate(-95.90332 -72)" style="fill:#fdc830"/><path d="M1204.69531,497.5752q0,24.602-10.95019,43.35058a78.59837,78.59837,0,0,1-29.40039,29.25q-18.44971,10.50293-41.25,10.5-22.80177,0-41.25-10.5a78.56769,78.56769,0,0,1-29.39942-29.25q-10.95557-18.74707-10.95019-43.35058,0-24.59547,10.95019-43.3501a79.75584,79.75584,0,0,1,29.39942-29.3999q18.45117-10.645,41.25-10.64991,22.79589,0,41.25,10.64991a79.78738,79.78738,0,0,1,29.40039,29.3999Q1204.69337,472.978,1204.69531,497.5752Zm-36,0q0-15.3003-6.15039-26.54981a45.78385,45.78385,0,0,0-16.5-17.55029,44.95188,44.95188,0,0,0-45.89941,0,45.74749,45.74749,0,0,0-16.5,17.55029q-6.15234,11.25-6.15039,26.54981,0,15.00438,6.15039,26.25a45.73925,45.73925,0,0,0,16.5,17.5498,44.94593,44.94593,0,0,0,45.89941,0,45.7756,45.7756,0,0,0,16.5-17.5498Q1168.68994,512.5752,1168.69531,497.5752Z" transform="translate(-95.90332 -72)" style="fill:#fdc830"/><path d="M1319.88965,420.17529a16.5692,16.5692,0,0,1,12,4.64991,17.02809,17.02809,0,0,1,0,23.70019,16.54924,16.54924,0,0,1-12,4.6499h-79.5a16.54289,16.54289,0,0,1-12-4.6499,17.02806,17.02806,0,0,1,0-23.70019,16.56283,16.56283,0,0,1,12-4.64991Zm-3.29981-64.5a46.761,46.761,0,0,1,12.90039,1.79981,24.56157,24.56157,0,0,1,10.5,5.8501,14.13388,14.13388,0,0,1,4.19922,10.6499q0,7.50293-4.34961,11.8501a13.80142,13.80142,0,0,1-10.0498,4.35009,36.94371,36.94371,0,0,1-8.10059-1.35009,43.23433,43.23433,0,0,0-10.5-1.3501q-7.50146,0-11.5498,3.30029a16.99347,16.99347,0,0,0-5.54981,7.6499,23.85206,23.85206,0,0,0-1.5,7.64991V559.375a17.99006,17.99006,0,0,1-5.09961,13.05078,18.47453,18.47453,0,0,1-25.80078,0,17.97423,17.97423,0,0,1-5.09961-13.05078V406.37549q0-21.29809,15-36Q1286.58691,355.68017,1316.58984,355.67529Z" transform="translate(-95.90332 -72)" style="fill:#fdc830"/><path d="M1469.29,559.375a17.93741,17.93741,0,0,1-18.29981,18.30078,16.86054,16.86054,0,0,1-12.60058-5.25A17.97419,17.97419,0,0,1,1433.29,559.375V373.9751a17.93738,17.93738,0,0,1,18.2998-18.29981,16.752,16.752,0,0,1,12.75,5.25,18.29438,18.29438,0,0,1,4.9502,13.04981Z" transform="translate(-95.90332 -72)" style="fill:#009245"/><path d="M1516.68652,397.67529q-10.20117,0-14.39941-3.2998-4.20556-3.29809-4.2002-11.7002V376.9751q0-8.69751,4.65039-11.84961,4.64649-3.15015,14.25-3.15039,10.49707,0,14.69922,3.30029,4.19824,3.30469,4.2002,11.69971v5.70019q0,8.70484-4.5,11.8501Q1526.88672,397.67554,1516.68652,397.67529ZM1534.9873,559.375a17.99084,17.99084,0,0,1-5.10058,13.05078,18.47334,18.47334,0,0,1-25.79981,0,17.97025,17.97025,0,0,1-5.09961-13.05078V435.4751a17.98143,17.98143,0,0,1,5.09961-13.04981,18.47334,18.47334,0,0,1,25.79981,0,18.00206,18.00206,0,0,1,5.10058,13.04981Z" transform="translate(-95.90332 -72)" style="fill:#009245"/><path d="M1654.68457,420.17529a16.56919,16.56919,0,0,1,12,4.64991,17.02806,17.02806,0,0,1,0,23.70019,16.54923,16.54923,0,0,1-12,4.6499h-79.5a16.54292,16.54292,0,0,1-12-4.6499,17.02809,17.02809,0,0,1,0-23.70019,16.56286,16.56286,0,0,1,12-4.64991Zm-3.2998-64.5a46.76115,46.76115,0,0,1,12.90039,1.79981,24.56157,24.56157,0,0,1,10.5,5.8501,14.13392,14.13392,0,0,1,4.19922,10.6499q0,7.50293-4.34961,11.8501a13.80145,13.80145,0,0,1-10.04981,4.35009,36.94364,36.94364,0,0,1-8.10058-1.35009,43.23439,43.23439,0,0,0-10.5-1.3501q-7.50147,0-11.54981,3.30029a16.99344,16.99344,0,0,0-5.5498,7.6499,23.85206,23.85206,0,0,0-1.5,7.64991V559.375a17.9901,17.9901,0,0,1-5.09961,13.05078,18.47453,18.47453,0,0,1-25.80078,0,17.97419,17.97419,0,0,1-5.09961-13.05078V406.37549q0-21.29809,15-36Q1621.38183,355.68017,1651.38477,355.67529Z" transform="translate(-95.90332 -72)" style="fill:#009245"/><path d="M1741.68457,580.67578q-25.50147,0-44.25-10.65039a73.49965,73.49965,0,0,1-28.7998-28.95019q-10.05469-18.29444-10.04981-41.39942,0-27.00073,10.9502-46.05029,10.94678-19.04809,28.64941-29.25a73.97943,73.97943,0,0,1,37.5-10.2002,68.27687,68.27687,0,0,1,28.9502,6.29981,79.22109,79.22109,0,0,1,24.15039,17.25,83.95952,83.95952,0,0,1,16.64941,25.3501,77.13276,77.13276,0,0,1,6.15039,30.60058,15.40692,15.40692,0,0,1-5.70019,11.69922,19.08361,19.08361,0,0,1-12.59961,4.5H1678.68457l-9-29.99951h110.10059l-6.60059,5.99951v-8.09961a27.40021,27.40021,0,0,0-6.14941-15.6001,40.2285,40.2285,0,0,0-13.79981-10.95019,39.33223,39.33223,0,0,0-17.55078-4.04981,56.90266,56.90266,0,0,0-16.7998,2.39991,32.20742,32.20742,0,0,0-13.5,8.10009q-5.70264,5.70264-9,15.29981-3.30469,9.605-3.29981,24.30029,0,16.19971,6.75,27.44922a46.134,46.134,0,0,0,40.04981,22.95117q11.09619,0,17.70019-1.80078a39.77482,39.77482,0,0,0,10.65039-4.34961q4.04883-2.5459,7.34961-4.34961a22.87135,22.87135,0,0,1,10.2002-2.70117,15.109,15.109,0,0,1,15.2998,15q0,8.10059-8.40039,14.70117-7.80468,6.60059-21.89941,11.54883A87.22942,87.22942,0,0,1,1741.68457,580.67578Z" transform="translate(-95.90332 -72)" style="fill:#009245"/><text transform="translate(1750.67285 922.02979)" style="font-size:60px;fill:#3f3d56;font-family:Imprima-Regular, Imprima">Mike Murdock</text><text x="-95.90332" y="-72"/><rect x="1663.09668" y="902" width="72" height="4" style="fill:#3f3d56"/></svg>